# xmcd CD database file
# Copyright (C) 1997 Ti Kan
# 
# Track frame offsets:
#     150
#     24386
#     47852
#     66982
#     91163
#     110869
#     118499
#     136510
#     156712
#     174489
#     192473
# 
# Disc length: 2861 seconds
# 
# Revision: 1
# Processed by: cddbd v1.4b41PL1 Copyright (c) Steve Scherf et al.
# Submitted via: DiscPlay 4.0.4
# 
DISCID=a20b2b0b
DTITLE=The Force MD'S - Moments In Time
DYEAR=1900
DGENRE=
TTITLE0=Inside My Room
TTITLE1=Dry Your Eyes
TTITLE2=Last to Know
TTITLE3=Moment in Time
TTITLE4=Do You Have a Friend
TTITLE5=Intro-Remember
TTITLE6=It's a Funk Thang (Radio Edit)
TTITLE7=From the Back
TTITLE8=Stop Frotin
TTITLE9=Everytime
TTITLE10=If You Let Me
EXTD=
EXTT0=
EXTT1=
EXTT2=
EXTT3=
EXTT4=
EXTT5=
EXTT6=
EXTT7=
EXTT8=
EXTT9=
EXTT10=
PLAYORDER=
